<svg width="59" height="59" viewBox="0 0 59 59" fill="none" xmlns="http://www.w3.org/2000/svg">
<path d="M29.2715 57.9357C44.9869 57.9357 57.7267 45.1959 57.7267 29.4805C57.7267 13.7652 44.9869 1.02539 29.2715 1.02539C13.5562 1.02539 0.816406 13.7652 0.816406 29.4805C0.816406 45.1959 13.5562 57.9357 29.2715 57.9357Z" stroke="#DCDCE3" stroke-width="0.875543"/>
<path d="M24.949 20.8479H33.5941C34.7405 20.8479 35.84 21.3033 36.6506 22.1139C37.4613 22.9246 37.9167 24.024 37.9167 25.1705V33.8156C37.9167 34.962 37.4613 36.0614 36.6506 36.8721C35.84 37.6827 34.7405 38.1381 33.5941 38.1381H24.949C23.8026 38.1381 22.7031 37.6827 21.8925 36.8721C21.0819 36.0614 20.6265 34.962 20.6265 33.8156V25.1705C20.6265 24.024 21.0819 22.9246 21.8925 22.1139C22.7031 21.3033 23.8026 20.8479 24.949 20.8479Z" stroke="black" stroke-width="1.75109" stroke-linecap="round" stroke-linejoin="round"/>
<path d="M32.73 28.9485C32.8367 29.6681 32.7137 30.4029 32.3787 31.0486C32.0437 31.6943 31.5136 32.2179 30.8638 32.5449C30.214 32.8719 29.4777 32.9857 28.7595 32.8702C28.0413 32.7546 27.3779 32.4155 26.8635 31.9012C26.3492 31.3868 26.0101 30.7233 25.8945 30.0052C25.7789 29.287 25.8928 28.5507 26.2198 27.9009C26.5468 27.2511 27.0704 26.721 27.7161 26.386C28.3618 26.051 29.0966 25.928 29.8162 26.0347C30.5502 26.1435 31.2297 26.4856 31.7544 27.0103C32.2791 27.535 32.6212 28.2145 32.73 28.9485Z" stroke="black" stroke-width="1.75109" stroke-linecap="round" stroke-linejoin="round"/>
</svg>
