<svg width="243" height="65" viewBox="0 0 243 65" fill="none" xmlns="http://www.w3.org/2000/svg">
<path d="M32.1218 0.979492H210.423C214.575 0.979492 218.687 1.79741 222.524 3.38655C226.36 4.9757 229.846 7.30494 232.783 10.2413C235.719 13.1776 238.048 16.6636 239.637 20.5001C241.227 24.3367 242.044 28.4486 242.044 32.6012C242.044 36.7539 241.227 40.8658 239.637 44.7024C238.048 48.5389 235.719 52.0248 232.783 54.9612C229.846 57.8976 226.36 60.2268 222.524 61.8159C218.687 63.4051 214.575 64.223 210.423 64.223H9.32437C6.984 64.223 4.73949 63.2933 3.0846 61.6384C1.42971 59.9835 0.5 57.739 0.5 55.3986L0.5 32.6012C0.5 24.2146 3.83157 16.1715 9.7618 10.2413C15.692 4.31106 23.7351 0.979492 32.1218 0.979492Z" fill="#546C8C"/>
</svg>
