<svg width="58" height="59" viewBox="0 0 58 59" fill="none" xmlns="http://www.w3.org/2000/svg">
<path d="M29.066 57.9357C44.7813 57.9357 57.5211 45.1959 57.5211 29.4805C57.5211 13.7652 44.7813 1.02539 29.066 1.02539C13.3506 1.02539 0.61084 13.7652 0.61084 29.4805C0.61084 45.1959 13.3506 57.9357 29.066 57.9357Z" stroke="#DCDCE3" stroke-width="0.875543"/>
<path d="M38.8309 25.0261C38.8449 25.2214 38.8449 25.4158 38.8449 25.611C38.8566 27.2943 38.5336 28.9631 37.8948 30.5204C37.256 32.0778 36.314 33.4927 35.1237 34.683C33.9334 35.8732 32.5184 36.815 30.961 37.4537C29.4036 38.0925 27.7348 38.4153 26.0515 38.4036C23.6036 38.41 21.206 37.7092 19.147 36.3854C19.5075 36.4253 19.87 36.444 20.2326 36.4415C22.2561 36.4474 24.2227 35.7716 25.8151 34.5232C24.8772 34.5058 23.9681 34.196 23.2147 33.6371C22.4613 33.0781 21.9012 32.2979 21.6125 31.4053C21.8935 31.4497 22.1774 31.4728 22.4618 31.4745C22.8609 31.4733 23.2583 31.4218 23.6446 31.3213C22.6259 31.1155 21.7098 30.5631 21.0523 29.7581C20.3949 28.9532 20.0365 27.9453 20.0383 26.9059V26.8499C20.6612 27.1976 21.3575 27.3932 22.0704 27.4207C21.1159 26.7843 20.4403 25.8075 20.1816 24.6898C19.9229 23.5721 20.1005 22.3978 20.6783 21.4066C21.8078 22.7967 23.2168 23.9338 24.8139 24.7444C26.411 25.5549 28.1607 26.0208 29.9494 26.1118C29.8773 25.773 29.84 25.4277 29.8382 25.0813C29.8383 24.179 30.1096 23.2975 30.6169 22.5513C31.1242 21.8051 31.8442 21.2287 32.6832 20.8968C33.5223 20.5649 34.4418 20.4929 35.3223 20.6901C36.2028 20.8874 37.0036 21.3448 37.6209 22.0029C38.6278 21.809 39.5932 21.4416 40.4743 20.9172C40.1391 21.9571 39.4358 22.8388 38.4965 23.3968C39.3892 23.2959 40.2618 23.0621 41.0854 22.7033C40.4698 23.5995 39.7073 24.3854 38.83 25.0279L38.8309 25.0261Z" fill="black"/>
</svg>
