<svg width="147" height="65" viewBox="0 0 147 65" fill="none" xmlns="http://www.w3.org/2000/svg">
<path d="M32.7149 1.21753H114.246C118.348 1.21753 122.411 2.0256 126.201 3.59559C129.991 5.16559 133.435 7.46676 136.336 10.3677C139.237 13.2687 141.538 16.7127 143.108 20.503C144.678 24.2933 145.486 28.3557 145.486 32.4583C145.486 36.5609 144.678 40.6233 143.108 44.4136C141.538 48.2039 139.237 51.6479 136.336 54.5489C133.435 57.4498 129.991 59.751 126.201 61.321C122.411 62.891 118.348 63.6991 114.246 63.6991H9.65615C7.48614 63.6991 5.40501 62.837 3.87058 61.3026C2.33615 59.7682 1.47412 57.687 1.47412 55.517V32.4583C1.47412 24.1727 4.76555 16.2265 10.6243 10.3677C16.4831 4.50896 24.4293 1.21753 32.7149 1.21753Z" stroke="black" stroke-width="1.52394" stroke-linecap="round" stroke-dasharray="318.5 15.24"/>
</svg>
